<svg width="1533" height="604" viewBox="0 0 1533 604" fill="none" xmlns="http://www.w3.org/2000/svg">
<g opacity="0.4">
<path d="M371.5 425.738C510 490.896 608.5 511.666 855 511.666L332.5 603.982L0 472.935C78 376.904 196 343.173 371.5 425.738Z" fill="#7393B3"/>
<path d="M371.5 425.738C510 490.896 608.5 511.666 855 511.666L332.5 603.982L0 472.935C78 376.904 196 343.173 371.5 425.738Z" fill="white" fill-opacity="0.65"/>
</g>
<path d="M1465 195.775C1473 129.986 1505 4.775 1532.5 0L1480 603.772H0V342.208C83.6667 401.454 313.823 510.925 540.5 510.925C738.5 510.925 811.5 481.407 875.5 453.625C978.5 408.914 1013.5 388.054 1166 453.625C1352.5 533.816 1439.57 404.87 1465 195.775Z" fill="#7393B3"/>
<path d="M1465 195.775C1473 129.986 1505 4.775 1532.5 0L1480 603.772H0V342.208C83.6667 401.454 313.823 510.925 540.5 510.925C738.5 510.925 811.5 481.407 875.5 453.625C978.5 408.914 1013.5 388.054 1166 453.625C1352.5 533.816 1439.57 404.87 1465 195.775Z" fill="white" fill-opacity="0.65"/>
</svg>
